<svg xmlns="http://www.w3.org/2000/svg" viewBox="0 0 627.18 193.35"><defs><style>.cls-1{fill:#b2dbbe;}.cls-2,.cls-3,.cls-4,.cls-9{fill:#ee2a63;}.cls-2{opacity:0.13;}.cls-3{opacity:0.2;}.cls-4{opacity:0.4;}.cls-5{fill:#0d5874;}.cls-6{fill:#6dc2b4;}.cls-7{fill:#fff;}.cls-8{fill:#ee2963;opacity:0;}</style></defs><title>screen5globe</title><g id="Layer_2" data-name="Layer 2"><g id="Layer_4" data-name="Layer 4"><g id="MeltingIce_Cap" data-name="MeltingIce Cap"><polygon class="cls-1" points="136.05 55 139.8 55 139.8 51.63 144.18 55.88 144.18 58.25 139.3 58.25 136.05 55"/><circle class="cls-2" cx="96.67" cy="96.67" r="96.67"/><circle class="cls-3" cx="96.67" cy="96.67" r="82.1"/><circle class="cls-4" cx="96.67" cy="97.67" r="71.66"/><circle class="cls-5" cx="96.67" cy="96.67" r="67.5"/><path class="cls-6" d="M141.14,45.91c-2-.11-4.34-.28-4.34-.28l2.13,3.75-5.88-1.88-13,2.63L113.3,47.5l-2.25-8.75-2.5-3.37,3.5-1.63-7-2.75V29.71a68,68,0,0,0-8.38-.54A67.24,67.24,0,0,0,57.55,41.68l.63,3L54.43,47.5v4.75L49.8,56.38l1.88,3.87L47.3,69.5l4.63,1.38-3.5,5.25,9,10.62,2.12-1.62,1.38,1.37-4.25,3.63-5.75-3.38H47.18l-11-11.25-5.85,8.77A67.5,67.5,0,1,0,141.14,45.91ZM105.05,147.13,101.49,151v2.75l-1.94-1.5-4.25.25v-2h4l5.13-5.37,3.25,1.75Zm15.88-8.88,2,1.63v1.62h-2Zm14.37,7.63-.75,3.56-8.12,2.81-4.88-2,1.5-1.87-.87-2.5,4.87-4.5,7.5-1.5,8.75-9.5,1.5-8h6.38l-4.63,13.5Z"/><path class="cls-7" d="M69,86.34s9.83,9.5,10.33,9.16,8.5-4.58,8.5-4.58V83.34l7.5-3.67,16.34,5.67,5.66.16v7.34l2.34.66-3,3.17a15.11,15.11,0,0,1,3,2c.5.67,1.91,8,1.91,8l-10.08,15.71L96.67,124l2.8-2.5L99,116l-2.92,1.18L92.14,115l-7.67-.16L77.8,111l.67-5.83-4.67-.5,2.17-8-4.5-2-.17-2.83Z"/><circle class="cls-8" cx="96.05" cy="96.85" r="9.31"/><circle class="cls-8" cx="96.05" cy="96.85" r="9.31"/><circle class="cls-8" cx="96.05" cy="96.85" r="9.31"/></g><g id="MeltingIce_Cap-2" data-name="MeltingIce Cap"><polygon class="cls-1" points="382.82 55.18 386.57 55.18 386.57 51.8 390.95 56.05 390.95 58.43 386.07 58.43 382.82 55.18"/><circle class="cls-5" cx="343.44" cy="96.85" r="67.5"/><path class="cls-6" d="M387.91,46.09c-2-.12-4.34-.29-4.34-.29l2.13,3.75-5.88-1.87-13,2.62-6.75-2.62-2.25-8.75-2.5-3.38,3.5-1.62-7-2.75V29.89a66.14,66.14,0,0,0-8.38-.54,67.17,67.17,0,0,0-39.12,12.51L305,44.8l-3.75,2.88v4.75l-4.63,4.12,1.88,3.88-4.38,9.25,4.63,1.37-3.5,5.25,9,10.63,2.12-1.63,1.38,1.38-4.25,3.62-5.75-3.37H294L283,75.68l-5.85,8.76A67.5,67.5,0,1,0,387.91,46.09ZM351.82,147.3l-3.56,3.88v2.75l-1.94-1.5-4.25.25v-2h4l5.13-5.38,3.25,1.75Zm15.88-8.87,2,1.62v1.63h-2Zm14.37,7.62-.75,3.57-8.12,2.81-4.88-2,1.5-1.88-.87-2.5,4.87-4.5,7.5-1.5,8.75-9.5,1.5-8H398l-4.63,13.5Z"/><path class="cls-9" d="M410.92,97.67H276a67.48,67.48,0,0,0,135,0Zm-59.1,49.63-3.56,3.88v2.75l-1.94-1.5-4.25.25v-2h4l5.13-5.38,3.25,1.75Zm15.88-8.87,2,1.62v1.63h-2Zm13.62,11.18-8.12,2.82-4.88-2,1.5-1.88-.87-2.5,4.87-4.5,7.5-1.5,8.75-9.5,1.5-8H398l-4.63,13.5-11.25,10Z"/><path class="cls-7" d="M315.74,86.51s9.83,9.5,10.33,9.17,8.5-4.58,8.5-4.58V83.51l7.5-3.67,16.34,5.67,5.66.17V93l2.34.67-3,3.17a15.42,15.42,0,0,1,3,2c.5.67,1.91,8,1.91,8l-10.08,15.71-14.8,1.63,2.8-2.5-.5-5.5-2.92,1.18-3.91-2.18-7.67-.17-6.67-3.83.67-5.84-4.67-.5,2.17-8-4.5-2L318.07,92Z"/><circle class="cls-8" cx="342.82" cy="97.02" r="9.31"/><circle class="cls-8" cx="342.82" cy="97.02" r="9.31"/><circle class="cls-8" cx="342.82" cy="97.02" r="9.31"/></g><g id="MeltingIce_Cap-3" data-name="MeltingIce Cap"><polygon class="cls-1" points="599.06 55.18 602.81 55.18 602.81 51.8 607.19 56.05 607.19 58.43 602.31 58.43 599.06 55.18"/><circle class="cls-5" cx="559.68" cy="96.85" r="67.5"/><path class="cls-6" d="M604.15,46.09c-2-.12-4.34-.29-4.34-.29l2.13,3.75-5.88-1.87-13,2.62-6.75-2.62-2.25-8.75-2.5-3.38,3.5-1.62-7-2.75V29.89a66.26,66.26,0,0,0-8.38-.54,67.14,67.14,0,0,0-39.12,12.51l.63,2.94-3.75,2.88v4.75l-4.63,4.12,1.88,3.88-4.38,9.25,4.63,1.37-3.5,5.25,9,10.63,2.12-1.63,1.38,1.38-4.25,3.62-5.75-3.37h-3.75l-11-11.25-5.85,8.76A67.5,67.5,0,1,0,604.15,46.09ZM568.06,147.3l-3.56,3.88v2.75l-1.94-1.5-4.25.25v-2h4l5.13-5.38,3.25,1.75Zm15.88-8.87,2,1.62v1.63h-2Zm14.37,7.62-.75,3.57-8.12,2.81-4.88-2,1.5-1.88-.87-2.5,4.87-4.5,7.5-1.5,8.75-9.5,1.5-8h6.38l-4.63,13.5Z"/><path class="cls-6" d="M532,86.51s9.83,9.5,10.33,9.17,8.5-4.58,8.5-4.58V83.51l7.5-3.67,16.33,5.67,5.67.17V93l2.33.67-3,3.17a15.42,15.42,0,0,1,3,2c.5.67,1.92,8,1.92,8l-10.08,15.71-14.8,1.63,2.8-2.5-.5-5.5-2.92,1.18-3.92-2.18-7.66-.17-6.67-3.83.67-5.84-4.67-.5,2.17-8-4.5-2L534.31,92Z"/><circle class="cls-8" cx="559.06" cy="97.02" r="9.31"/><circle class="cls-8" cx="559.06" cy="97.02" r="9.31"/></g></g></g></svg>