<svg xmlns="http://www.w3.org/2000/svg" viewBox="0 0 118.24 118.24"><defs><style>.cls-1{fill:#b2dbbe;}.cls-2{fill:#0d5874;}.cls-3,.cls-8{fill:none;stroke:#ee2a63;stroke-miterlimit:10;}.cls-3{stroke-width:5px;}.cls-4{fill:#6dc2b4;}.cls-5{fill:#fff;}.cls-6{fill:#ee2963;opacity:0.49;}.cls-7{opacity:0.52;}.cls-8{stroke-width:0.5px;}</style></defs><title>screen2Globe</title><g id="Layer_2" data-name="Layer 2"><g id="Layer_4" data-name="Layer 4"><g id="MeltingIce_Cap" data-name="MeltingIce Cap"><polygon class="cls-1" points="82.05 34.86 84.23 34.86 84.23 32.89 86.78 35.37 86.78 36.75 83.94 36.75 82.05 34.86"/><circle class="cls-2" cx="59.12" cy="59.12" r="39.3"/><circle class="cls-3" cx="59.12" cy="59.12" r="56.62"/><path class="cls-4" d="M85,29.56c-1.18-.06-2.53-.16-2.53-.16l1.24,2.18L80.3,30.49,72.73,32,68.8,30.49l-1.31-5.1-1.45-2,2-.95L64,20.88v-.75a39.16,39.16,0,0,0-27.66,7l.37,1.72-2.19,1.67v2.76l-2.69,2.41,1.09,2.25L30.37,43.3l2.7.8-2,3.06,5.24,6.18,1.24-.94.8.8-2.48,2.11-3.35-2H30.3l-6.4-6.55L20.49,51.9a39.89,39.89,0,0,0-.67,7.22A39.3,39.3,0,1,0,85,29.56ZM64,88.49l-2.08,2.26v1.6l-1.12-.87-2.48.14V90.46h2.33l3-3.13,1.9,1Zm9.24-5.16,1.17.94v1H73.24Zm8.37,4.44-.44,2.07-4.73,1.64L73.6,90.31l.88-1.09L74,87.77l2.84-2.62,4.36-.88,5.1-5.53.87-4.66h3.71l-2.69,7.86Z"/><path class="cls-4" d="M85,29.56c-1.18-.06-2.53-.16-2.53-.16l1.24,2.18L80.3,30.49,72.73,32,68.8,30.49l-1.31-5.1-1.45-2,2-.95L64,20.88v-.75a39.16,39.16,0,0,0-27.66,7l.37,1.72-2.19,1.67v2.76l-2.69,2.41,1.09,2.25L30.37,43.3l2.7.8-2,3.06,5.24,6.18,1.24-.94.8.8-2.48,2.11-3.35-2H30.3l-6.4-6.55L20.49,51.9a39.89,39.89,0,0,0-.67,7.22A39.3,39.3,0,1,0,85,29.56ZM64,88.49l-2.08,2.26v1.6l-1.12-.87-2.48.14V90.46h2.33l3-3.13,1.9,1Zm9.24-5.16,1.17.94v1H73.24Zm8.37,4.44-.44,2.07-4.73,1.64L73.6,90.31l.88-1.09L74,87.77l2.84-2.62,4.36-.88,5.1-5.53.87-4.66h3.71l-2.69,7.86Z"/><path class="cls-2" d="M43,53.1s5.72,5.53,6,5.34S54,55.77,54,55.77V51.35l4.37-2.13,9.51,3.3,3.3.09v4.27l1.36.39-1.75,1.85a8.71,8.71,0,0,1,1.75,1.16,39.74,39.74,0,0,1,1.11,4.66l-5.87,9.14-8.61,1,1.63-1.46-.29-3.2-1.71.69-2.27-1.27L52,69.69l-3.88-2.23.39-3.4-2.72-.29,1.26-4.65L44.44,58l-.09-1.65Z"/><rect class="cls-5" x="87.01" y="19.82" width="7.26" height="24.64"/><rect class="cls-6" x="87.01" y="32.04" width="7.26" height="12.41"/></g><g class="cls-7"><path class="cls-8" d="M63.15,9.36H58.32S56.39,9.6,56.39,11a1.24,1.24,0,0,0,1.28,1.28h5.48"/><path class="cls-8" d="M57.77,15.17h4.84s1.93-.24,1.93-1.63a1.23,1.23,0,0,0-1.28-1.27H57.77"/><path class="cls-8" d="M63,15.13H58.13s-1.93.24-1.93,1.62A1.24,1.24,0,0,0,57.48,18H63"/></g><g class="cls-7"><path class="cls-8" d="M63.15,103.48H58.32s-1.93.25-1.93,1.63a1.24,1.24,0,0,0,1.28,1.28h5.48"/><path class="cls-8" d="M57.77,109.3h4.84s1.93-.25,1.93-1.63a1.24,1.24,0,0,0-1.28-1.28H57.77"/><path class="cls-8" d="M63,109.25H58.13s-1.93.25-1.93,1.63a1.24,1.24,0,0,0,1.28,1.28H63"/></g><g class="cls-7"><path class="cls-8" d="M8.58,54.58v4.84s.24,1.93,1.62,1.93a1.24,1.24,0,0,0,1.28-1.28V54.58"/><path class="cls-8" d="M14.39,60V55.12s-.24-1.92-1.62-1.92a1.23,1.23,0,0,0-1.28,1.27V60"/><path class="cls-8" d="M14.35,54.77v4.84s.24,1.93,1.62,1.93a1.24,1.24,0,0,0,1.28-1.28V54.77"/></g><g class="cls-7"><path class="cls-8" d="M102.76,54.58v4.84s.25,1.93,1.63,1.93a1.24,1.24,0,0,0,1.28-1.28V54.58"/><path class="cls-8" d="M108.58,60V55.12s-.24-1.92-1.63-1.92a1.22,1.22,0,0,0-1.27,1.27V60"/><path class="cls-8" d="M108.54,54.77v4.84s.24,1.93,1.62,1.93a1.24,1.24,0,0,0,1.28-1.28V54.77"/></g><g class="cls-7"><path class="cls-8" d="M24.73,22.06l-3.12,3.7s-1.06,1.63,0,2.53a1.23,1.23,0,0,0,1.8-.16L27,23.94"/><path class="cls-8" d="M25.7,29.93l3.12-3.7s1.06-1.63,0-2.52a1.23,1.23,0,0,0-1.8.15l-3.54,4.2"/><path class="cls-8" d="M29,25.93l-3.12,3.7s-1.06,1.63,0,2.52A1.23,1.23,0,0,0,27.7,32l3.54-4.2"/></g><g class="cls-7"><path class="cls-8" d="M92.45,87.51l-3.12,3.7s-1,1.63,0,2.52a1.24,1.24,0,0,0,1.81-.15l3.53-4.19"/><path class="cls-8" d="M93.43,95.38l3.12-3.7s1-1.63,0-2.52a1.24,1.24,0,0,0-1.8.15L91.21,93.5"/><path class="cls-8" d="M96.74,91.38l-3.12,3.7s-1.05,1.63,0,2.52a1.24,1.24,0,0,0,1.8-.15L99,93.25"/></g><g class="cls-7"><path class="cls-8" d="M31.6,93.19l-3.7-3.12s-1.63-1-2.52,0a1.23,1.23,0,0,0,.15,1.8l4.19,3.53"/><path class="cls-8" d="M23.73,94.17l3.7,3.12s1.63,1,2.52,0a1.24,1.24,0,0,0-.15-1.8L25.61,92"/><path class="cls-8" d="M27.73,97.48,24,94.36s-1.63-1-2.52,0a1.25,1.25,0,0,0,.15,1.81l4.2,3.53"/></g></g></g></svg>