<svg xmlns="http://www.w3.org/2000/svg" viewBox="0 0 107.97 58.39"><defs><style>.cls-1{opacity:0.69;}.cls-2{fill:#0d5874;}.cls-3{fill:#b2dbbe;}.cls-4{fill:#6dc2b4;}.cls-5{fill:#fff;}.cls-6{fill:#ee2963;opacity:0.49;}.cls-7{opacity:0.38;}</style></defs><title>screenGlobe1</title><g id="Layer_2" data-name="Layer 2"><g id="Layer_2-2" data-name="Layer 2"><g class="cls-1"><rect class="cls-2" width="20.61" height="2.81" rx="1.41"/><path class="cls-2" d="M36.57,5.63H19.2a1.41,1.41,0,1,1,0,2.81H36.57a1.41,1.41,0,1,0,0-2.81Z"/><path class="cls-2" d="M17.37,7a1.41,1.41,0,0,1,1.4-1.41H1.41a1.41,1.41,0,1,0,0,2.81H18.77A1.4,1.4,0,0,1,17.37,7Z"/><rect class="cls-2" x="8.74" y="8.44" width="12.96" height="2.81" rx="1.41"/><path class="cls-2" d="M31,2.82H14.48a1.41,1.41,0,1,1,0,2.81H31a1.41,1.41,0,1,0,0-2.81Z"/></g></g><g id="Layer_4" data-name="Layer 4"><g id="MeltingIce_Cap" data-name="MeltingIce Cap"><polygon class="cls-3" points="48.01 17.07 49.43 17.07 49.43 15.79 51.09 17.4 51.09 18.3 49.24 18.3 48.01 17.07"/><circle class="cls-2" cx="33.1" cy="32.84" r="25.55"/><path class="cls-4" d="M49.94,13.63l-1.65-.11.81,1.42-2.23-.71-4.92,1-2.55-1-.85-3.31L37.6,9.64,38.93,9,36.28,8V7.49a27.7,27.7,0,0,0-3.18-.2A25.4,25.4,0,0,0,18.3,12l.23,1.11-1.42,1.09V16l-1.75,1.56.71,1.46-1.65,3.51,1.75.52-1.33,2,3.41,4,.8-.62.53.52L18,30.36l-2.18-1.27H14.37l-4.16-4.26L8,28.14a26.09,26.09,0,0,0-.43,4.7A25.55,25.55,0,1,0,49.94,13.63ZM36.28,51.94,34.93,53.4v1.05l-.74-.57-1.6.09v-.76H34.1l1.94-2,1.23.66Zm6-3.36.75.61v.62h-.75Zm5.44,2.88-.29,1.35-3.07,1.07-1.85-.76.57-.71-.33-.95,1.84-1.7,2.84-.57,3.31-3.59.57-3h2.42L52,47.68Z"/><path class="cls-2" d="M22.62,28.93s3.72,3.59,3.91,3.47,3.22-1.74,3.22-1.74V27.79l2.84-1.39,6.18,2.15,2.14.06v2.78l.89.25-1.14,1.2a5.51,5.51,0,0,1,1.14.76,25.23,25.23,0,0,1,.72,3l-3.81,6-5.61.61,1.06-.94L34,40.16l-1.1.44-1.48-.82-2.9-.07L26,38.26l.25-2.2-1.76-.19.82-3-1.7-.76L23.5,31Z"/><rect class="cls-5" x="51.23" y="7.29" width="4.72" height="16.02"/><rect class="cls-6" x="51.23" y="15.24" width="4.72" height="8.07"/></g><g class="cls-7"><rect class="cls-2" x="46.59" y="5.02" width="33.31" height="4.54" rx="2.27"/><path class="cls-2" d="M105.7,14.12H77.63a2.27,2.27,0,1,1,0,4.54H105.7a2.27,2.27,0,0,0,0-4.54Z"/><path class="cls-2" d="M74.67,16.39a2.27,2.27,0,0,1,2.27-2.27H48.86a2.27,2.27,0,1,0,0,4.54H76.94A2.27,2.27,0,0,1,74.67,16.39Z"/><rect class="cls-2" x="60.72" y="18.66" width="20.94" height="4.54" rx="2.27"/><path class="cls-2" d="M96.68,9.58H70a2.27,2.27,0,0,1,0,4.54H96.68a2.27,2.27,0,0,0,0-4.54Z"/></g></g></g></svg>