<svg xmlns="http://www.w3.org/2000/svg" viewBox="0 0 166.19 143.5"><defs><style>.cls-1{opacity:0.66;}.cls-2{fill:#0d5874;}.cls-3{fill:none;stroke:#0d5874;stroke-miterlimit:10;stroke-width:5px;}.cls-4{fill:#b2dbbe;}.cls-5{fill:#6dc2b4;}.cls-6{fill:#ee2963;}.cls-7{opacity:0.52;}</style></defs><title>screenGlobe2</title><g id="Layer_2" data-name="Layer 2"><g id="Layer_2-2" data-name="Layer 2"><g class="cls-1"><rect class="cls-2" y="40.11" width="36.49" height="4.98" rx="2.49"/><path class="cls-2" d="M64.76,50.08H34a2.49,2.49,0,1,1,0,5H64.76a2.49,2.49,0,1,0,0-5Z"/><path class="cls-2" d="M30.76,52.56a2.49,2.49,0,0,1,2.48-2.48H2.49a2.49,2.49,0,1,0,0,5H33.24A2.49,2.49,0,0,1,30.76,52.56Z"/><rect class="cls-2" x="15.48" y="55.05" width="22.95" height="4.98" rx="2.49"/><path class="cls-2" d="M54.88,45.1H25.64a2.49,2.49,0,0,1,0,5H54.88a2.49,2.49,0,0,0,0-5Z"/></g><path class="cls-3" d="M53.49,2.5H35s-7.35.93-7.35,6.2c0,0-.09,4.88,4.87,4.88H53.49"/><path class="cls-3" d="M33,24.68H51.41s7.35-.93,7.35-6.2c0,0,.09-4.88-4.87-4.88H33"/><path class="cls-3" d="M52.77,24.51H34.31S27,25.44,27,30.71c0,0-.08,4.88,4.88,4.88H52.77"/><path class="cls-3" d="M87.74,42.23h8.81s3.51-.8,3.51-5.37c0,0,0-4.22-2.33-4.22h-10"/><path class="cls-3" d="M97.54,23H88.73s-3.51.81-3.51,5.37c0,0,0,4.22,2.33,4.22h10"/><path class="cls-3" d="M88.09,23.19H96.9s3.51-.81,3.51-5.37c0,0,0-4.22-2.33-4.22h-10"/></g><g id="Layer_4" data-name="Layer 4"><g id="MeltingIce_Cap" data-name="MeltingIce Cap"><polygon class="cls-4" points="85.01 70.33 87.53 70.33 87.53 68.07 90.46 70.92 90.46 72.51 87.19 72.51 85.01 70.33"/><circle class="cls-2" cx="58.62" cy="98.26" r="45.24"/><path class="cls-5" d="M88.42,64.24l-2.9-.19,1.42,2.51L83,65.3l-8.71,1.76L69.77,65.3l-1.51-5.86-1.68-2.26,2.35-1.09-4.69-1.85v-.86a45,45,0,0,0-31.84,8l.42,2L30.31,65.3v3.19l-3.1,2.76,1.25,2.6-2.93,6.2,3.1.92-2.35,3.52,6,7.12,1.42-1.09.92.92-2.85,2.43L28,91.61H25.45l-7.38-7.54-3.92,5.87a45.24,45.24,0,1,0,89.71,8.32A45.1,45.1,0,0,0,88.42,64.24ZM64.24,132.08l-2.39,2.59v1.85l-1.3-1-2.85.17v-1.34h2.68l3.44-3.61L66,131.91Zm10.64-6,1.34,1.09v1.09H74.88Zm9.63,5.11-.5,2.39-5.45,1.88-3.26-1.34,1-1.26-.59-1.67,3.27-3,5-1,5.86-6.37,1-5.36h4.27l-3.1,9.05Z"/><path class="cls-2" d="M40.05,91.33S46.64,97.7,47,97.47s5.7-3.06,5.7-3.06V89.32l5-2.46,11,3.8,3.8.11v4.92l1.56.44-2,2.13a9.93,9.93,0,0,1,2,1.34A44.34,44.34,0,0,1,75.3,105l-6.76,10.53-9.92,1.09,1.87-1.68-.33-3.69-2,.79-2.62-1.46-5.14-.11L46,107.86l.45-3.91-3.13-.33,1.45-5.36-3-1.34L41.62,95Z"/></g><rect class="cls-6" x="54.83" y="66.43" width="7.02" height="35.29"/><g class="cls-7"><rect class="cls-2" x="57.51" y="47" width="58.98" height="8.04" rx="4.02"/><path class="cls-2" d="M162.17,63.11H112.46a4,4,0,1,1,0,8h49.71a4,4,0,1,0,0-8Z"/><path class="cls-2" d="M107.21,67.13a4,4,0,0,1,4-4H61.53a4,4,0,1,0,0,8h49.71A4,4,0,0,1,107.21,67.13Z"/><rect class="cls-2" x="82.53" y="71.15" width="37.09" height="8.04" rx="4.02"/><path class="cls-2" d="M146.2,55.07H99a4,4,0,0,1,0,8H146.2a4,4,0,1,0,0-8Z"/></g></g></g></svg>