<svg xmlns="http://www.w3.org/2000/svg" viewBox="0 0 206.18 206.18"><defs><style>.cls-1{fill:#b2dbbe;}.cls-2{fill:#ee2a63;opacity:0.48;}.cls-3{fill:#0d5874;}.cls-4{fill:none;stroke:#ee2a63;stroke-miterlimit:10;stroke-width:5px;}.cls-5{fill:#6dc2b4;}.cls-6{fill:#fff;}.cls-7{fill:#ee2963;opacity:0.49;}</style></defs><title>screen4globe</title><g id="Layer_2" data-name="Layer 2"><g id="Layer_4" data-name="Layer 4"><g id="MeltingIce_Cap" data-name="MeltingIce Cap"><polygon class="cls-1" points="143.83 59.98 147.71 59.98 147.71 56.49 152.23 60.89 152.23 63.35 147.19 63.35 143.83 59.98"/><circle class="cls-2" cx="103.09" cy="103.09" r="69.82"/><circle class="cls-3" cx="103.09" cy="103.09" r="69.82"/><circle class="cls-4" cx="103.09" cy="103.09" r="100.59"/><path class="cls-5" d="M149.09,50.58c-2.09-.12-4.49-.29-4.49-.29l2.2,3.88-6.08-1.94-13.44,2.71-7-2.71-2.32-9-2.59-3.5L119,38l-7.24-2.84V33.82a70.8,70.8,0,0,0-8.67-.55A69.48,69.48,0,0,0,62.62,46.21l.65,3-3.88,3v4.91l-4.78,4.27,1.94,4L52,75l4.79,1.43-3.62,5.43,9.31,11,2.19-1.68,1.43,1.42-4.4,3.75-5.95-3.49H51.89L40.51,81.19l-6,9.07a69.82,69.82,0,1,0,138.45,12.83A69.63,69.63,0,0,0,149.09,50.58Zm-37.33,104.7-3.69,4v2.85l-2-1.56-4.4.26v-2.07h4.14l5.3-5.56,3.37,1.81Zm16.42-9.18,2.07,1.68v1.68h-2.07ZM143.05,154l-.77,3.68-8.41,2.91-5-2.07,1.55-1.93-.91-2.59,5.05-4.66,7.76-1.55,9.05-9.82,1.55-8.28h6.59l-4.78,14Z"/><path class="cls-3" d="M74.43,92.4s10.18,9.82,10.69,9.48,8.8-4.74,8.8-4.74V89.29l7.75-3.79,16.9,5.86,5.86.18v7.58l2.42.69-3.11,3.28a15.87,15.87,0,0,1,3.11,2.07c.51.69,2,8.27,2,8.27L118.4,129.68l-15.31,1.68,2.89-2.59-.51-5.68-3,1.21-4-2.25-7.93-.17-6.9-4,.69-6-4.83-.52,2.25-8.27L77,101l-.17-2.93Z"/><rect class="cls-6" x="152.64" y="33.27" width="12.9" height="43.78"/><rect class="cls-7" x="152.64" y="54.99" width="12.9" height="22.05"/></g></g></g></svg>