<svg xmlns="http://www.w3.org/2000/svg" viewBox="0 0 493.39 425.61"><defs><style>.cls-1{fill:#134c60;stroke:#134c60;stroke-miterlimit:10;stroke-width:2px;}.cls-2{font-size:14px;fill:#28617a;}.cls-2,.cls-3{font-family:JohnstonITCStd-Bold, Johnston ITC Std;font-weight:700;}.cls-3{font-size:12px;fill:#12576e;}.cls-4{letter-spacing:-0.29em;}.cls-5{letter-spacing:-0.18em;}.cls-6{letter-spacing:0em;}.cls-7{letter-spacing:-0.1em;}.cls-8{letter-spacing:-0.14em;}.cls-9{letter-spacing:-0.03em;}.cls-10{letter-spacing:-0.06em;}.cls-11{letter-spacing:-0.02em;}.cls-12{letter-spacing:-0.02em;}.cls-13{fill:#197ba4;}.cls-14{fill:#0d5874;}.cls-15{fill:#fff;}.cls-16{fill:#6dc2b4;}.cls-17{fill:#ec2254;}.cls-17,.cls-18{opacity:0;}.cls-18,.cls-20,.cls-21,.cls-22{fill:#ee2963;}.cls-19{fill:#b2dbbe;}.cls-20{opacity:0.3;}.cls-21{opacity:0.49;}</style></defs><title>s creen3globe</title><g id="Layer_2" data-name="Layer 2"><g id="Layer_2-2" data-name="Layer 2"><g id="Layer_3" data-name="Layer 3"><path class="cls-1" d="M332.14,98.91a170.45,170.45,0,0,1,43.5,45.65c1.08-.77,2.19-1.5,3.33-2.22a174.75,174.75,0,0,0-45.92-47.69A38.41,38.41,0,0,1,332.14,98.91Z"/><path class="cls-1" d="M86.14,319.23a167.83,167.83,0,0,1-20.29-60.7q-2.16-.81-4.25-1.81A171.91,171.91,0,0,0,83.08,322Q84.57,320.56,86.14,319.23Z"/><path class="cls-1" d="M402.62,243.11A168.08,168.08,0,0,1,396.77,281c1.19.78,2.35,1.58,3.49,2.42A172,172,0,0,0,406.59,244C405.26,243.71,403.93,243.43,402.62,243.11Z"/><path class="cls-1" d="M276.3,400.07a169.47,169.47,0,0,1-67.48,3.65c-.87,1.24-1.8,2.44-2.75,3.62a173.31,173.31,0,0,0,72.1-3.63C277.52,402.51,276.9,401.3,276.3,400.07Z"/><path class="cls-1" d="M99.31,133.55a169.93,169.93,0,0,1,77.1-56.44,43.75,43.75,0,0,1,1.78-4.87,173.91,173.91,0,0,0-83,60.07C96.6,132.66,98,133.07,99.31,133.55Z"/></g><text class="cls-2" transform="translate(217.72 300.17)">8 In</text><text class="cls-3" transform="translate(307.73 10.03)"><tspan class="cls-4">1</tspan><tspan class="cls-5" x="3.71" y="0">1</tspan><tspan class="cls-6" x="8.69" y="0">9B </tspan><tspan class="cls-7" x="25.52" y="0">T</tspan><tspan x="31.27" y="0">on</tspan></text><text class="cls-3" transform="translate(422.6 298.91)"><tspan class="cls-8">1</tspan><tspan class="cls-9" x="5.46" y="0">.</tspan><tspan class="cls-10" x="8.4" y="0">6</tspan><tspan x="14.89" y="0">2°F</tspan></text><text class="cls-3" transform="translate(121.9 140.11)"><tspan class="cls-11">0</tspan><tspan class="cls-12" x="6.97" y="0">.</tspan><tspan x="10.1" y="0">4°F</tspan></text></g><g id="Layer_5" data-name="Layer 5"><path class="cls-13" d="M214.11,337.22c-5.09,1.59-13.61.76-14.17-2.94-.67-4.41,5.33-7.58,5.33-7.58s-9.67,0-15,5.86-16.65,5.8-20.48,1.8,5.17-9,5.17-9a25.65,25.65,0,0,0-13.67,3.34c-7.33,4-19,22-20.94,11.07s6.31-11,6.31-11-14.7-5-20.54,3.64-13.16,9-15.5,5.16,2.67-10.5,2.67-10.5a42.28,42.28,0,0,0-20,10.5c-7.11,7-12,4.19-13.46,3a67.48,67.48,0,0,0,134.3-3.27Zm-29.42,38.35,8.75-9.5,1.5-8h6.37l-4.62,13.5-11.25,10-.75,3.56L176.56,388l-4.87-2,1.5-1.88-.88-2.5,4.88-4.5ZM171.06,374l2,1.62v1.63h-2ZM145.44,386.2h4l5.12-5.38,3.25,1.75-2.62.25-3.57,3.88v2.75l-1.93-1.5-4.25.25Z"/><path class="cls-14" d="M197.45,344c-5.1,1.59-13.62.76-14.18-2.94-.67-4.41,5.33-7.58,5.33-7.58s-9.66,0-15,5.86-16.64,5.8-20.48,1.8,5.17-9,5.17-9a25.66,25.66,0,0,0-13.67,3.34c-7.33,4-19,22-20.94,11.07s6.31-11,6.31-11-14.7-5-20.53,3.64-13.17,9-15.5,5.16,2.66-10.5,2.66-10.5a42.28,42.28,0,0,0-20,10.5c-7.11,7-11.95,4.19-13.46,3A67.49,67.49,0,0,0,197.45,344ZM168,382.39l8.75-9.5,1.5-8h6.38L180,378.39l-11.25,10L168,392l-8.12,2.82-4.88-2,1.5-1.88-.87-2.5,4.87-4.5Zm-13.62-1.62,2,1.62V384h-2ZM128.77,393h4l5.13-5.38,3.25,1.75-2.63.25L135,393.52v2.75l-1.94-1.5-4.25.25Z"/><rect class="cls-15" x="197.67" y="329.97" width="9.21" height="26.48"/><polygon class="cls-15" points="202.27 310.1 190.27 330.88 214.27 330.88 202.27 310.1"/><path class="cls-16" d="M210.63,354.45c-5.1,1.6-13.62.77-14.18-2.93-.67-4.42,5.33-7.59,5.33-7.59s-9.66,0-15,5.87-16.64,5.8-20.48,1.8,5.17-9,5.17-9a25.59,25.59,0,0,0-13.67,3.33c-7.33,4-19,22-20.94,11.08S143.15,346,143.15,346s-14.7-5-20.53,3.64-13.17,9-15.5,5.16,2.66-10.5,2.66-10.5a42.28,42.28,0,0,0-20,10.5c-7.11,7-12,4.19-13.46,3a67.49,67.49,0,0,0,134.31-3.28Z"/><rect class="cls-17" x="403.45" y="311.61" width="12.47" height="42.32"/><rect class="cls-18" x="47.12" y="168.1" width="134.3" height="31.51"/></g><g id="Layer_4" data-name="Layer 4"><g id="MeltingIce_Cap" data-name="MeltingIce Cap"><polygon class="cls-19" points="299.47 27.34 303.22 27.34 303.22 23.97 307.59 28.22 307.59 30.59 302.72 30.59 299.47 27.34"/><circle class="cls-14" cx="260.09" cy="69.01" r="67.5"/><path class="cls-16" d="M304.55,18.25c-2-.12-4.33-.28-4.33-.28l2.12,3.75-5.87-1.88-13,2.63-6.75-2.63-2.25-8.75L272,7.72l3.5-1.63-7-2.75V2.05a68.3,68.3,0,0,0-8.38-.54A67.17,67.17,0,0,0,221,14l.63,2.95-3.75,2.87v4.75l-4.62,4.13,1.87,3.87-4.37,9.25,4.62,1.38-3.5,5.25,9,10.62L223,57.47l1.37,1.37-4.25,3.63-5.75-3.38h-3.75l-11-11.25-5.85,8.77A67.5,67.5,0,1,0,304.55,18.25ZM268.47,119.47l-3.57,3.87v2.75l-1.93-1.5-4.25.25v-2h4l5.12-5.37,3.25,1.75Zm15.87-8.88,2,1.63v1.62h-2Zm14.38,7.63-.75,3.56-8.13,2.81-4.87-2,1.5-1.87-.88-2.5,4.88-4.5,7.5-1.5,8.75-9.5,1.5-8h6.37L310,108.22Z"/><path class="cls-15" d="M232.38,58.67s9.84,9.5,10.34,9.17,8.5-4.58,8.5-4.58V55.67l7.5-3.66,16.33,5.66,5.67.17v7.33l2.33.67-3,3.17a15.11,15.11,0,0,1,3,2c.5.66,1.92,8,1.92,8L274.88,94.72l-14.79,1.62,2.79-2.5-.5-5.5-2.92,1.18-3.91-2.18-7.67-.17-6.66-3.83.66-5.83-4.66-.5,2.16-8-4.5-2-.16-2.84Z"/><circle class="cls-20" cx="259.46" cy="69.19" r="3.84"/><circle class="cls-20" cx="259.46" cy="69.19" r="6.05"/><circle class="cls-20" cx="259.46" cy="69.19" r="9.31"/><path class="cls-20" d="M260.94,56.91A12.28,12.28,0,0,0,251.22,60v3.28l-3.42,1.82a12,12,0,0,0-.62,2.63,12.37,12.37,0,1,0,13.76-10.8Z"/><path class="cls-20" d="M270.64,56.14,258.82,52h-.2l-7.4,3.62v7.59s-8,4.25-8.5,4.58c-.05,0-.17,0-.35-.14a17.17,17.17,0,1,0,28.27-11.56Z"/><circle class="cls-18" cx="259.46" cy="69.19" r="9.31"/><circle class="cls-18" cx="259.46" cy="69.19" r="9.31"/><circle class="cls-18" cx="259.46" cy="69.19" r="9.31"/></g><g id="MeltingIce_Cap-2" data-name="MeltingIce Cap"><polygon class="cls-19" points="394.94 316.44 398.69 316.44 398.69 313.06 403.06 317.31 403.06 319.69 398.19 319.69 394.94 316.44"/><circle class="cls-14" cx="355.56" cy="358.11" r="67.5"/><path class="cls-16" d="M400,307.35c-2-.12-4.33-.29-4.33-.29l2.12,3.75-5.87-1.87-13,2.62-6.75-2.62-2.25-8.75-2.5-3.38,3.5-1.62-7-2.75v-1.3a68.31,68.31,0,0,0-8.38-.53,67.17,67.17,0,0,0-39.13,12.51l.63,2.94-3.75,2.88v4.75l-4.62,4.12,1.87,3.88-4.37,9.25,4.62,1.37-3.5,5.25,9,10.63,2.13-1.63,1.37,1.38-4.25,3.62-5.75-3.37h-3.75l-11-11.25-5.85,8.76A67.5,67.5,0,1,0,400,307.35ZM363.94,408.56l-3.57,3.88v2.75l-1.93-1.5-4.25.25v-2h4l5.12-5.38,3.25,1.75Zm15.87-8.87,2,1.62v1.63h-2Zm14.38,7.62-.75,3.56-8.13,2.82-4.87-2,1.5-1.88-.88-2.5,4.88-4.5,7.5-1.5,8.75-9.5,1.5-8h6.37l-4.62,13.5Z"/><path class="cls-14" d="M327.85,347.77s9.84,9.5,10.34,9.17,8.5-4.58,8.5-4.58v-7.59l7.5-3.67,16.33,5.67,5.67.17v7.33l2.33.67-3,3.17a15.42,15.42,0,0,1,3,2c.5.67,1.92,8,1.92,8l-10.09,15.71-14.79,1.63,2.79-2.5-.5-5.5-2.92,1.17L351,376.44l-7.67-.17-6.66-3.83.66-5.84-4.66-.5,2.16-8-4.5-2-.16-2.83Z"/><rect class="cls-15" x="403.45" y="290.61" width="12.47" height="42.32"/><rect class="cls-21" x="403.45" y="311.61" width="12.47" height="21.32"/></g><rect class="cls-22" x="11.18" y="163.46" width="134.3" height="31.51"/><rect class="cls-21" x="11.18" y="152.35" width="134.3" height="31.51"/><path class="cls-14" d="M134.3,169.59c-5.1,1.59-13.61.76-14.17-2.94-.67-4.41,5.33-7.58,5.33-7.58s-9.67,0-15,5.86-16.65,5.8-20.48,1.8,5.17-9,5.17-9a25.65,25.65,0,0,0-13.67,3.34c-7.33,4-19,22-20.94,11.07s6.31-11,6.31-11-14.7-5-20.54,3.64-13.16,9-15.5,5.16,2.67-10.5,2.67-10.5a42.28,42.28,0,0,0-20,10.5c-7.11,7-12,4.19-13.46,3a67.48,67.48,0,0,0,134.3-3.27Zm-29.42,38.35,8.75-9.5,1.5-8h6.37l-4.62,13.5-11.25,10-.75,3.56-8.13,2.82-4.87-2,1.5-1.88-.88-2.5,4.88-4.5Zm-13.63-1.62,2,1.62v1.63h-2ZM65.63,218.57h4l5.12-5.38L78,214.94l-2.62.25-3.57,3.88v2.75l-1.93-1.5-4.25.25Z"/><path class="cls-16" d="M147.48,180c-5.1,1.6-13.62.77-14.18-2.93-.66-4.42,5.34-7.59,5.34-7.59s-9.67,0-15,5.87-16.65,5.8-20.48,1.8,5.16-9,5.16-9a25.55,25.55,0,0,0-13.66,3.33c-7.34,4-19,22-20.94,11.08S80,171.51,80,171.51s-14.71-5-20.54,3.64-13.17,9-15.5,5.17,2.67-10.5,2.67-10.5a42.24,42.24,0,0,0-20,10.5c-7.11,7-12,4.18-13.46,3A67.48,67.48,0,0,0,147.48,180Z"/><rect class="cls-18" x="61.67" y="20.83" width="134.3" height="31.51"/><path class="cls-14" d="M480.21,162.94c-5.1,1.6-13.62.77-14.18-2.93-.67-4.42,5.33-7.59,5.33-7.59s-9.66,0-15,5.86-16.64,5.81-20.48,1.81,5.17-9,5.17-9a25.59,25.59,0,0,0-13.67,3.33c-7.33,4-19,22-20.94,11.07s6.31-11,6.31-11-14.7-5-20.53,3.64-13.17,9-15.5,5.16,2.66-10.5,2.66-10.5a42.28,42.28,0,0,0-20,10.5c-7.11,7-11.95,4.19-13.46,3a67.49,67.49,0,0,0,134.31-3.28Zm-29.43,38.35,8.75-9.5,1.5-8h6.38l-4.63,13.5-11.25,10-.75,3.57-8.12,2.81-4.88-2,1.5-1.88-.87-2.5,4.87-4.5Zm-13.62-1.62,2,1.62v1.63h-2Zm-25.63,12.25h4l5.13-5.38,3.25,1.75-2.63.25-3.56,3.88v2.75l-1.94-1.5-4.25.25Z"/><path class="cls-16" d="M493.39,173.36c-5.1,1.59-13.62.76-14.18-2.94-.67-4.42,5.33-7.59,5.33-7.59s-9.66,0-15,5.87-16.64,5.8-20.48,1.8,5.17-9,5.17-9a25.59,25.59,0,0,0-13.67,3.33c-7.33,4-19,22-20.94,11.08s6.31-11,6.31-11-14.7-5-20.53,3.65-13.17,9-15.5,5.16,2.66-10.5,2.66-10.5a42.28,42.28,0,0,0-20,10.5c-7.11,7-12,4.19-13.46,3a67.49,67.49,0,0,0,134.31-3.27Z"/><path class="cls-22" d="M491.39,185.51V173.83c-5.07.87-11.69-.16-12.18-3.41-.67-4.42,5.33-7.59,5.33-7.59s-9.66,0-15,5.87-16.64,5.8-20.48,1.8,5.17-9,5.17-9a25.59,25.59,0,0,0-13.67,3.33c-7.33,4-19,22-20.94,11.08s6.31-11,6.31-11-14.7-5-20.53,3.65-13.17,9-15.5,5.16,2.66-10.5,2.66-10.5a42.28,42.28,0,0,0-20,10.5c-7.11,7-12,4.19-13.46,3a66.74,66.74,0,0,0,3.81,15.58H489.27A68.66,68.66,0,0,0,491.39,185.51Z"/><path class="cls-21" d="M491.39,185.51V173.83c-4.25.73-9.59.12-11.49-2H465.05c-4.76,2.1-10.71,1.93-14.25,0H432.39c-5.81,5.74-11.49,11.43-12.79,4.1a16.34,16.34,0,0,1-.25-4.1H402.7c-5.23,5.35-10.84,5.12-12.82,1.86a4.22,4.22,0,0,1-.58-1.86H374.6c-.7.58-1.39,1.2-2.06,1.86-7.11,7-12,4.19-13.46,3a67,67,0,0,0,9.19,26.69H483.9A67.45,67.45,0,0,0,491.39,185.51Z"/></g></g></svg>