<svg xmlns="http://www.w3.org/2000/svg" viewBox="0 0 285.33 212.86"><defs><style>.cls-1{fill:#0d5874;}.cls-2{opacity:0.52;}.cls-3{fill:none;stroke:#ee2a63;stroke-miterlimit:10;stroke-width:5px;}.cls-4{fill:#b2dbbe;}.cls-5{fill:#6dc2b4;}.cls-6{fill:#ee2963;}.cls-7{fill:#fffeff;}</style></defs><title>screenGlobe3</title><g id="Layer_2" data-name="Layer 2"><g id="Layer_4" data-name="Layer 4"><rect class="cls-1" y="66.21" width="54.45" height="7.42" rx="3.71"/><path class="cls-1" d="M96.62,81.09H50.73a3.71,3.71,0,1,1,0,7.42H96.62a3.71,3.71,0,0,0,0-7.42Z"/><path class="cls-1" d="M45.89,84.8a3.72,3.72,0,0,1,3.71-3.71H3.71a3.71,3.71,0,0,0,0,7.42H49.6A3.72,3.72,0,0,1,45.89,84.8Z"/><rect class="cls-1" x="23.1" y="88.51" width="34.23" height="7.42" rx="3.71"/><path class="cls-1" d="M81.88,73.66H38.26a3.72,3.72,0,0,1,0,7.43H81.88a3.72,3.72,0,0,0,0-7.43Z"/><g class="cls-2"><path class="cls-3" d="M102,2.5H74.46s-11,1.39-11,9.26c0,0-.13,7.27,7.27,7.27H102"/><path class="cls-3" d="M71.36,35.59H98.9s11-1.38,11-9.25c0,0,.12-7.28-7.28-7.28H71.36"/><path class="cls-3" d="M100.92,35.34H73.38s-11,1.39-11,9.26c0,0-.13,7.27,7.27,7.27h31.24"/></g><path class="cls-3" d="M129.5,59.31h13.14s5.24-1.2,5.24-8c0,0,.06-6.3-3.47-6.3H129.5"/><path class="cls-3" d="M144.12,30.67H131s-5.24,1.21-5.24,8c0,0-.06,6.3,3.47,6.3h14.91"/><path class="cls-3" d="M130,30.89h13.15s5.23-1.2,5.23-8c0,0,.06-6.29-3.47-6.29H130"/><g id="MeltingIce_Cap" data-name="MeltingIce Cap"><polygon class="cls-4" points="158.15 103.69 161.9 103.69 161.9 100.31 166.28 104.56 166.28 106.94 161.4 106.94 158.15 103.69"/><circle class="cls-1" cx="118.77" cy="145.36" r="67.5"/><path class="cls-5" d="M163.24,94.6c-2-.12-4.34-.29-4.34-.29L161,98.06l-5.88-1.87-13,2.62-6.75-2.62-2.25-8.75-2.5-3.38,3.5-1.62-7-2.75v-1.3a68.06,68.06,0,0,0-8.38-.53A67.17,67.17,0,0,0,79.65,90.37l.63,2.94-3.75,2.88v4.75l-4.63,4.12,1.88,3.88-4.38,9.25L74,119.56l-3.5,5.25,9,10.63,2.12-1.63L83,135.19l-4.25,3.62L73,135.44H69.28l-11-11.25L52.43,133A67.5,67.5,0,1,0,163.24,94.6ZM127.15,195.81l-3.56,3.88v2.75l-1.94-1.5-4.25.25v-2h4l5.13-5.38,3.25,1.75ZM143,186.94l2,1.62v1.63h-2Zm14.37,7.62-.75,3.56-8.12,2.82-4.88-2,1.5-1.88-.87-2.5,4.87-4.5,7.5-1.5,8.75-9.5,1.5-8h6.38l-4.63,13.5Z"/><path class="cls-1" d="M91.07,135s9.83,9.5,10.33,9.17,8.5-4.58,8.5-4.58V132l7.5-3.67L133.74,134l5.66.17v7.33l2.34.67-3,3.17a15.42,15.42,0,0,1,3,2c.5.67,1.91,8,1.91,8l-10.08,15.71-14.8,1.63,2.8-2.5-.5-5.5-2.92,1.17-3.91-2.17-7.67-.17-6.67-3.83.67-5.84-4.67-.5,2.17-8-4.5-2-.17-2.83Z"/></g><rect class="cls-6" x="113.4" y="96.15" width="10.47" height="81.17"/><rect class="cls-7" x="104.51" y="158.42" width="28.53" height="28.53"/><rect class="cls-1" x="123.17" y="55.07" width="88" height="12" rx="6"/><path class="cls-1" d="M279.33,79.11H205.17a6,6,0,0,1,0,12h74.16a6,6,0,0,0,0-12Z"/><path class="cls-1" d="M197.33,85.11a6,6,0,0,1,6-6H129.17a6,6,0,1,0,0,12h74.16A6,6,0,0,1,197.33,85.11Z"/><rect class="cls-1" x="160.5" y="91.11" width="55.33" height="12" rx="6"/><path class="cls-1" d="M255.5,67.11H185a6,6,0,0,1,0,12h70.5a6,6,0,0,0,0-12Z"/></g></g></svg>